<svg width="205.683136" height="13.276123" viewBox="0 0 205.683 13.2761" fill="none" xmlns="http://www.w3.org/2000/svg" xmlns:xlink="http://www.w3.org/1999/xlink">
	<desc>
			Created with Pixso.
	</desc>
	<defs/>
	<path id="Vector (Stroke)" d="M199.04 0L205.68 6.63L199.04 13.27L198.09 12.32L203.78 6.63L198.09 0.94L199.04 0Z" fill="#FFFFFF" fill-opacity="1.000000" fill-rule="evenodd"/>
	<path id="Vector (Stroke)" d="M204.73 7.3L164.22 7.3L164.22 5.96L204.73 5.96L204.73 7.3Z" fill="#FFFFFF" fill-opacity="1.000000" fill-rule="evenodd"/>
	<path id="Vector (Stroke)" d="M6.63 13.27L0 6.63L6.63 0L7.58 0.94L1.89 6.63L7.58 12.32L6.63 13.27Z" fill="#FFFFFF" fill-opacity="1.000000" fill-rule="evenodd"/>
	<path id="Vector (Stroke)" d="M0.94 5.96L41.45 5.96L41.45 7.3L0.94 7.3L0.94 5.96Z" fill="#FFFFFF" fill-opacity="1.000000" fill-rule="evenodd"/>
	<rect id="Rectangle 7.2" x="125.163910" y="1.456543" rx="4.783333" width="9.566667" height="9.566667" fill="#FFFFFF" fill-opacity="0.300000"/>
	<rect id="Rectangle 7.3" x="98.058350" y="1.456543" rx="4.783333" width="9.566667" height="9.566667" fill="#FFFFFF" fill-opacity="0.300000"/>
	<rect id="Rectangle 7.4" x="70.952759" y="1.456299" rx="4.783333" width="9.566667" height="9.566667" fill="#FFFFFF" fill-opacity="1.000000"/>
</svg>
