<svg width="115.000000" height="29.003174" viewBox="0 0 115 29.0032" fill="none" xmlns="http://www.w3.org/2000/svg" xmlns:xlink="http://www.w3.org/1999/xlink">
	<desc>
			Created with Pixso.
	</desc>
	<defs/>
	<path id="Форма 1" d="M50.23 0.54L74.35 9.47L74.35 9.47C74.49 9.52 74.6 9.62 74.67 9.76C74.82 10.05 74.71 10.41 74.41 10.56L70.8 12.41C71.1 13.08 71.19 13.82 71.05 14.53C70.69 16.47 68.82 17.75 66.88 17.38L66.66 17.99C66.57 18.23 66.35 18.38 66.1 18.38C66.03 18.38 65.96 18.37 65.89 18.35L60.86 16.5L60.45 17.62C60.24 18.19 59.82 18.65 59.28 18.92L59.28 25.52C59.28 26.51 58.48 27.31 57.5 27.31C56.51 27.31 55.71 26.51 55.71 25.52L55.71 24.92L47.69 24.92C47.3 25.81 46.51 26.46 45.56 26.65L45.56 27.9C45.56 28.23 45.3 28.5 44.97 28.5L42.56 28.5C42.23 28.5 41.97 28.23 41.97 27.9L41.97 18.37C41.97 18.04 42.23 17.78 42.56 17.78L44.97 17.78C45.3 17.78 45.56 18.04 45.56 18.37L45.56 19.62C46.51 19.82 47.3 20.46 47.69 21.35L55.71 21.35L55.71 18.31C54.83 17.69 54.49 16.56 54.86 15.56L55.27 14.44L49.68 12.39C49.37 12.28 49.21 11.94 49.32 11.63L49.94 9.95L47.14 8.92L47.14 8.92C46.83 8.81 46.68 8.47 46.79 8.16L49.46 0.89L49.46 0.89C49.57 0.58 49.92 0.42 50.23 0.54ZM67.67 12.65C67.7 12.64 67.73 12.64 67.76 12.64L72.66 10.12L50.37 1.86L48.11 8.01L60.07 12.4L61.74 10.83C61.91 10.67 62.15 10.62 62.36 10.7L67.67 12.65ZM50.65 11.48L65.75 17.02L66.98 13.67L62.29 11.95L60.62 13.52C60.45 13.68 60.22 13.72 60.01 13.65L51.06 10.36L50.65 11.48ZM67.3 16.25C68.38 16.35 69.4 15.71 69.77 14.7C69.98 14.13 69.96 13.51 69.73 12.96L68.22 13.74L67.3 16.25ZM1.27 13.52L31.72 13.52C32.15 13.52 32.5 13.86 32.5 14.29C32.5 14.72 32.15 15.06 31.72 15.06L1.27 15.06C0.84 15.06 0.5 14.72 0.5 14.29C0.5 13.86 0.84 13.52 1.27 13.52ZM83.27 13.52L113.72 13.52C114.15 13.52 114.5 13.86 114.5 14.29C114.5 14.72 114.15 15.06 113.72 15.06L83.27 15.06C82.84 15.06 82.5 14.72 82.5 14.29C82.5 13.86 82.84 13.52 83.27 13.52ZM59.33 17.21L59.74 16.09L59.41 15.97L56.39 14.86L55.98 15.98L55.98 15.98C55.75 16.59 56.07 17.28 56.68 17.5L57.8 17.91C58.42 18.14 59.11 17.82 59.33 17.21ZM57.39 19.03L56.9 18.85L56.9 21.35L58.09 21.35L58.09 19.17C57.85 19.16 57.62 19.11 57.39 19.03ZM43.16 27.31L44.37 27.31L44.37 18.97L43.16 18.97L43.16 27.31ZM45.56 25.42C46.28 25.16 46.75 24.49 46.75 23.73L46.75 22.54C46.75 21.78 46.28 21.11 45.56 20.86L45.56 25.42ZM58.09 22.54L47.96 22.54L47.96 23.73L58.09 23.73L58.09 22.54ZM56.9 25.52C56.9 25.85 57.17 26.12 57.5 26.12C57.82 26.12 58.09 25.85 58.09 25.52L58.09 24.92L56.9 24.92L56.9 25.52Z" fill="#E3B873" fill-opacity="1.000000" fill-rule="evenodd"/>
	<path id="Форма 1" d="M31.72 13.52C32.15 13.52 32.5 13.86 32.5 14.29C32.5 14.72 32.15 15.06 31.72 15.06L1.27 15.06C0.84 15.06 0.5 14.72 0.5 14.29C0.5 13.86 0.84 13.52 1.27 13.52L31.72 13.52ZM113.72 13.52C114.15 13.52 114.5 13.86 114.5 14.29C114.5 14.72 114.15 15.06 113.72 15.06L83.27 15.06C82.84 15.06 82.5 14.72 82.5 14.29C82.5 13.86 82.84 13.52 83.27 13.52L113.72 13.52ZM50.23 0.54C49.92 0.42 49.57 0.58 49.46 0.89C49.46 0.89 49.46 0.89 49.46 0.89L46.79 8.16C46.68 8.47 46.83 8.81 47.14 8.92L47.14 8.92L49.94 9.95L49.32 11.63C49.21 11.94 49.37 12.28 49.68 12.39L55.27 14.44L54.86 15.56C54.49 16.56 54.83 17.69 55.71 18.31L55.71 21.35L47.69 21.35C47.3 20.46 46.51 19.82 45.56 19.62L45.56 18.37C45.56 18.04 45.3 17.78 44.97 17.78L42.56 17.78C42.23 17.78 41.97 18.04 41.97 18.37L41.97 27.9C41.97 28.23 42.23 28.5 42.56 28.5L44.97 28.5C45.3 28.5 45.56 28.23 45.56 27.9L45.56 26.65C46.51 26.46 47.3 25.81 47.69 24.92L55.71 24.92L55.71 25.52C55.71 26.51 56.51 27.31 57.5 27.31C58.48 27.31 59.28 26.51 59.28 25.52L59.28 18.92C59.82 18.65 60.24 18.19 60.45 17.62L60.86 16.5L65.89 18.35C65.96 18.37 66.03 18.38 66.1 18.38C66.35 18.38 66.57 18.23 66.66 17.99L66.88 17.38C68.82 17.75 70.69 16.47 71.05 14.53C71.19 13.82 71.1 13.08 70.8 12.41L74.41 10.56C74.71 10.41 74.82 10.05 74.67 9.76C74.6 9.62 74.49 9.52 74.35 9.47L74.35 9.47L50.23 0.54ZM57.39 19.03C57.62 19.11 57.85 19.16 58.09 19.17L58.09 21.35L56.9 21.35L56.9 18.85L57.39 19.03ZM43.16 27.31L43.16 18.97L44.37 18.97L44.37 27.31L43.16 27.31ZM45.56 25.42L45.56 20.86C46.28 21.11 46.75 21.78 46.75 22.54L46.75 23.73C46.75 24.49 46.28 25.16 45.56 25.42ZM58.09 22.54L58.09 23.73L47.96 23.73L47.96 22.54L58.09 22.54ZM56.9 25.52L56.9 24.92L58.09 24.92L58.09 25.52C58.09 25.85 57.82 26.12 57.5 26.12C57.17 26.12 56.9 25.85 56.9 25.52ZM59.33 17.21C59.11 17.82 58.42 18.14 57.8 17.91L56.68 17.5C56.07 17.28 55.75 16.59 55.98 15.98C55.98 15.98 55.98 15.98 55.98 15.98L56.39 14.86L59.41 15.97L59.74 16.09L59.33 17.21ZM50.65 11.48L51.06 10.36L60.01 13.65C60.22 13.72 60.45 13.68 60.62 13.52L62.29 11.95L66.98 13.67L65.75 17.02L50.65 11.48ZM67.3 16.25L68.22 13.74L69.73 12.96C69.96 13.51 69.98 14.13 69.77 14.7C69.4 15.71 68.38 16.35 67.3 16.25ZM67.67 12.65L62.36 10.7C62.15 10.62 61.91 10.67 61.74 10.83L60.07 12.4L48.11 8.01L50.37 1.86L72.66 10.12L67.76 12.64C67.73 12.64 67.7 12.64 67.67 12.65ZM53.62 8.41L53.1 9.83M55.91 9.25L55.39 10.67M58.14 10.08L57.61 11.5" stroke="#E3B873" stroke-opacity="1.000000" stroke-width="1.000000"/>
</svg>
