<svg width="313.750244" height="36.750244" viewBox="0 0 313.75 36.7502" fill="none" xmlns="http://www.w3.org/2000/svg" xmlns:xlink="http://www.w3.org/1999/xlink">
	<desc>
			Created with Pixso.
	</desc>
	<defs/>
	<path id="Форма 4" d="M36.37 18.37C36.37 28.31 28.31 36.37 18.37 36.37C8.43 36.37 0.37 28.31 0.37 18.37C0.37 8.43 8.43 0.37 18.37 0.37C28.31 0.37 36.37 8.43 36.37 18.37Z" fill="#E3B873" fill-opacity="1.000000" fill-rule="evenodd"/>
	<path id="Форма 4" d="M19.94 23.85L14.46 18.37L19.94 12.89L20.72 13.67L16.02 18.37L20.72 23.07L19.94 23.85Z" fill="#FFFFFF" fill-opacity="1.000000" fill-rule="evenodd"/>
	<path id="Форма 4" d="M277.37 18.37C277.37 8.43 285.43 0.37 295.37 0.37C305.31 0.37 313.37 8.43 313.37 18.37C313.37 28.31 305.31 36.37 295.37 36.37C285.43 36.37 277.37 28.31 277.37 18.37Z" fill="#E3B873" fill-opacity="1.000000" fill-rule="evenodd"/>
	<path id="Форма 4" d="M293.8 12.89L299.28 18.37L293.8 23.85L293.02 23.07L297.72 18.37L293.02 13.67L293.8 12.89Z" fill="#FFFFFF" fill-opacity="1.000000" fill-rule="evenodd"/>
	<path id="Форма 4" d="M18.37 36.37C8.43 36.37 0.37 28.31 0.37 18.37C0.37 8.43 8.43 0.37 18.37 0.37C28.31 0.37 36.37 8.43 36.37 18.37C36.37 28.31 28.31 36.37 18.37 36.37ZM19.94 12.89L14.46 18.37L19.94 23.85L20.72 23.07L16.02 18.37L20.72 13.67L19.94 12.89ZM295.37 0.37C305.31 0.37 313.37 8.43 313.37 18.37C313.37 28.31 305.31 36.37 295.37 36.37C285.43 36.37 277.37 28.31 277.37 18.37C277.37 8.43 285.43 0.37 295.37 0.37ZM293.8 23.85L299.28 18.37L293.8 12.89L293.02 13.67L297.72 18.37L293.02 23.07L293.8 23.85Z" stroke="#FFFFFF" stroke-opacity="1.000000" stroke-width="0.750000"/>
</svg>
